<svg width="24" height="24" xmlns="http://www.w3.org/2000/svg" xmlns:xlink="http://www.w3.org/1999/xlink" xml:space="preserve" overflow="hidden"><g transform="translate(-628 -348)"><path d="M639.03 350.59C639.59 350.116 640.41 350.116 640.97 350.59L648.47 356.953C648.806 357.238 649 357.656 649 358.097L649 367.5C649 368.328 648.328 369 647.5 369L641.75 369C641.336 369 641 368.664 641 368.25L641 362 639 362 639 368.25C639 368.664 638.664 369 638.25 369L632.5 369C631.672 369 631 368.328 631 367.5L631 358.097C631 357.657 631.194 357.238 631.53 356.953ZM640 351.734 632.5 358.097 632.5 367.5 637.5 367.5 637.5 361.25C637.5 360.836 637.836 360.5 638.25 360.5L641.75 360.5C642.164 360.5 642.5 360.836 642.5 361.25L642.5 367.5 647.5 367.5 647.5 358.097Z" fill="#FFFFFF"/></g></svg>