<svg width="24" height="24" xmlns="http://www.w3.org/2000/svg" xmlns:xlink="http://www.w3.org/1999/xlink" xml:space="preserve" overflow="hidden"><g transform="translate(-628 -348)"><path d="M642.78 351.653C644.317 350.116 646.81 350.116 648.347 351.653 649.884 353.19 649.884 355.683 648.347 357.22L644.72 360.847C643.183 362.384 640.691 362.385 639.154 360.848 639.042 360.736 638.937 360.618 638.84 360.494 638.584 360.168 638.112 360.112 637.786 360.368 637.46 360.624 637.404 361.096 637.66 361.422 639.514 363.783 642.931 364.194 645.293 362.34 645.464 362.206 645.626 362.062 645.78 361.908L649.408 358.28C651.531 356.157 651.531 352.715 649.408 350.592 647.285 348.469 643.843 348.469 641.72 350.592L638.72 353.592C638.432 353.89 638.44 354.365 638.738 354.652 639.028 354.933 639.489 354.934 639.78 354.653L642.78 351.653Z" fill="#FFFFFF"/><path d="M635.28 359.153C636.817 357.616 639.309 357.615 640.846 359.152 640.958 359.264 641.063 359.382 641.16 359.506 641.416 359.832 641.888 359.888 642.214 359.632 642.54 359.376 642.596 358.904 642.34 358.578 640.486 356.217 637.069 355.806 634.707 357.66 634.536 357.794 634.374 357.938 634.22 358.092L630.592 361.72C628.469 363.843 628.469 367.285 630.592 369.408 632.715 371.531 636.157 371.531 638.28 369.408L641.28 366.408C641.583 366.126 641.6 365.651 641.317 365.348 641.035 365.045 640.56 365.028 640.257 365.311 640.245 365.323 640.232 365.335 640.22 365.348L637.22 368.348C635.682 369.885 633.19 369.885 631.653 368.348 630.115 366.81 630.115 364.317 631.653 362.78L635.28 359.153Z" fill="#FFFFFF"/></g></svg>