<svg width="24" height="24" xmlns="http://www.w3.org/2000/svg" xmlns:xlink="http://www.w3.org/1999/xlink" xml:space="preserve" overflow="hidden"><defs><clipPath id="clip0"><rect x="628" y="348" width="24" height="24"/></clipPath></defs><g clip-path="url(#clip0)" transform="translate(-628 -348)"><path d="M637.197 358C636.783 358 636.447 358.336 636.447 358.75 636.447 359.164 636.783 359.5 637.197 359.5L643.697 359.5C644.111 359.5 644.447 359.164 644.447 358.75 644.447 358.336 644.111 358 643.697 358L637.197 358ZM634.815 362C634.401 362 634.065 362.336 634.065 362.75 634.065 363.164 634.401 363.5 634.815 363.5L641.315 363.5C641.729 363.5 642.065 363.164 642.065 362.75 642.065 362.336 641.729 362 641.315 362L634.815 362ZM633.234 366C632.82 366 632.484 366.336 632.484 366.75 632.484 367.164 632.82 367.5 633.234 367.5L639.734 367.5C640.148 367.5 640.484 367.164 640.484 366.75 640.484 366.336 640.148 366 639.734 366L633.234 366Z" fill="#FFFFFF"/><path d="M632.125 348 647.875 348C648.97 347.997 650.021 348.43 650.795 349.205 651.57 349.979 652.003 351.03 652 352.125 652 353.509 651.524 354.919 650.872 356.285 650.22 357.65 649.357 359.042 648.52 360.389L648.512 360.402C647.663 361.77 646.843 363.093 646.232 364.372 645.618 365.655 645.25 366.822 645.25 367.875 645.25 369.325 646.425 370.5 647.875 370.5 649.325 370.5 650.5 369.324 650.5 367.875 650.5 366.998 650.062 366.179 649.333 365.692 648.989 365.462 648.896 364.996 649.127 364.651 649.357 364.307 649.823 364.215 650.167 364.445 652.061 365.712 652.569 368.275 651.301 370.169 650.536 371.312 649.251 371.999 647.875 372L632.5 372C630.222 372 628.375 370.153 628.375 367.875 628.375 365.641 629.633 363.219 630.965 360.973 631.313 360.387 631.667 359.811 632.015 359.245 632.815 357.941 633.582 356.692 634.159 355.507L631.39 355.507C630.567 355.507 629.504 355.314 628.823 354.472 628.282 353.81 627.991 352.98 628 352.125 628 349.847 629.847 348 632.125 348ZM643.75 367.875C643.75 366.495 644.226 365.089 644.878 363.725 645.527 362.367 646.387 360.982 647.221 359.639L647.238 359.611C648.087 358.244 648.907 356.919 649.518 355.639 650.132 354.354 650.5 353.182 650.5 352.125 650.505 350.681 649.339 349.506 647.895 349.5 647.888 349.5 647.882 349.5 647.875 349.5 646.425 349.5 645.25 350.675 645.25 352.125 645.25 352.99 645.671 353.634 646.417 354.134 646.761 354.365 646.853 354.831 646.622 355.175 646.483 355.382 646.25 355.507 646 355.507L635.812 355.507C635.162 356.99 634.188 358.576 633.235 360.126 632.901 360.67 632.569 361.209 632.255 361.738 630.9 364.025 629.875 366.109 629.875 367.875 629.875 369.325 631.05 370.5 632.5 370.5L644.693 370.5C644.082 369.762 643.749 368.833 643.75 367.875ZM629.5 352.125C629.49 352.636 629.663 353.133 629.987 353.528 630.241 353.841 630.727 354.007 631.389 354.007L644.249 354.007C643.915 353.436 643.743 352.786 643.75 352.125 643.749 351.167 644.082 350.238 644.693 349.5L632.125 349.5C630.675 349.5 629.5 350.675 629.5 352.125Z" fill="#FFFFFF"/></g></svg>