<svg width="24" height="24" xmlns="http://www.w3.org/2000/svg" xmlns:xlink="http://www.w3.org/1999/xlink" xml:space="preserve" overflow="hidden"><g transform="translate(-628 -348)"><path d="M631 350.75C631 349.231 632.231 348 633.75 348L648.25 348C648.664 348 649 348.336 649 348.75L649 369.25C649 369.664 648.664 370 648.25 370L642.25 370C641.836 370 641.5 369.664 641.5 369.25 641.5 368.836 641.836 368.5 642.25 368.5L647.5 368.5 647.5 364.5 634 364.5C633.172 364.5 632.5 365.172 632.5 366L632.5 366.75C632.5 367.466 632.93 368.084 633.55 368.355 633.924 368.532 634.084 368.98 633.907 369.354 633.737 369.712 633.318 369.876 632.95 369.729 631.766 369.212 631 368.042 631 366.75ZM647.5 349.5 633.75 349.5C633.06 349.5 632.5 350.06 632.5 350.75L632.5 363.401C632.956 363.138 633.473 362.999 634 363L647.5 363Z" fill="#FFFFFF"/><path d="M635 366.25C635 366.112 635.112 366 635.25 366L640.25 366C640.388 366 640.5 366.112 640.5 366.25L640.5 371.26C640.499 371.398 640.387 371.509 640.249 371.509 640.196 371.508 640.145 371.492 640.103 371.461L637.897 369.857C637.809 369.793 637.691 369.793 637.603 369.857L635.397 371.46C635.285 371.541 635.129 371.517 635.048 371.405 635.017 371.363 635 371.312 635 371.26L635 366.25Z" fill="#FFFFFF"/></g></svg>